<svg xmlns="http://www.w3.org/2000/svg" version="1.1" xmlns:xlink="http://www.w3.org/1999/xlink" width="200" height="200"><svg xmlns="http://www.w3.org/2000/svg" version="1.1" xmlns:xlink="http://www.w3.org/1999/xlink" viewBox="0 0 200 200"><rect width="200" height="200" fill="url('#gradient')"></rect><defs><linearGradient id="SvgjsLinearGradient1001" gradientTransform="rotate(255 0.5 0.5)"><stop offset="0%" stop-color="#66b793"></stop><stop offset="100%" stop-color="#5da287"></stop></linearGradient></defs><g><g fill="#55c3bd" transform="matrix(2.7071264367816092,0,0,2.7071264367816092,5.09808787713105,118.978674648548)" stroke="#cadba3" stroke-width="0.55"><path d="M8.87 0L6.36-5.02L4.50-5.02L4.50 0L1.07 0L1.07-14.22L6.67-14.22Q9.20-14.22 10.63-13.10Q12.05-11.97 12.05-9.92L12.05-9.92Q12.05-8.44 11.45-7.46Q10.85-6.48 9.57-5.88L9.57-5.88L12.54-0.15L12.54 0L8.87 0ZM4.50-11.57L4.50-7.67L6.67-7.67Q7.65-7.67 8.14-8.18Q8.63-8.69 8.63-9.61Q8.63-10.53 8.13-11.05Q7.64-11.57 6.67-11.57L6.67-11.57L4.50-11.57ZM20.36 0L20.26-1.14Q19.22 0.20 17.44 0.20L17.44 0.20Q15.70 0.20 14.81-0.82Q13.92-1.83 13.92-3.72L13.92-3.72L13.92-10.57L17.21-10.57L17.21-3.70Q17.21-2.34 18.53-2.34L18.53-2.34Q19.66-2.34 20.14-3.15L20.14-3.15L20.14-10.57L23.45-10.57L23.45 0L20.36 0ZM28.05-10.57L29.53-7.66L31.06-10.57L34.48-10.57L31.70-5.42L34.62 0L31.18 0L29.52-3.13L27.89 0L24.43 0L27.36-5.42L24.59-10.57L28.05-10.57ZM44.65-8.30L44.65-5.66L39.12-5.66L39.12 0L35.69 0L35.69-14.22L45.21-14.22L45.21-11.57L39.12-11.57L39.12-8.30L44.65-8.30ZM52.25-4.82L50.06-4.82L50.06 0L46.63 0L46.63-14.22L52.30-14.22Q53.94-14.22 55.19-13.62Q56.45-13.02 57.13-11.91Q57.82-10.80 57.82-9.39L57.82-9.39Q57.82-7.31 56.33-6.07Q54.84-4.82 52.25-4.82L52.25-4.82ZM50.06-11.57L50.06-7.47L52.30-7.47Q53.30-7.47 53.82-7.97Q54.35-8.47 54.35-9.38L54.35-9.38Q54.35-10.37 53.81-10.97Q53.27-11.56 52.34-11.57L52.34-11.57L50.06-11.57ZM63.08-14.22L63.08-2.64L69.04-2.64L69.04 0L59.65 0L59.65-14.22L63.08-14.22Z"></path></g></g></svg><style>@media (prefers-color-scheme: light) { :root { filter: none; } }
@media (prefers-color-scheme: dark) { :root { filter: none; } }
</style></svg>